<svg version="1.2" xmlns="http://www.w3.org/2000/svg" viewBox="0 0 463 383" width="463" height="383"><style></style><path fill-rule="evenodd" d="m460.4 224.1c-1.5 10.4-5.5 20.2-11.5 28.7-6 8.6-13.9 15.6-23 20.6q-3.9 2.1-8 3.5c3.5 46.3-70.1 63.2-109.8 52.1l14.8 51.6-37.9 1.3-66.3-94.9c-22.4 6.3-48.8 9.3-65.8-18.1q-2.4-3.7-4.3-7.7c-4.3 0.8-8.7 1.3-13.1 1.3-12.7 0-33.7-3.8-44.4-11.2-8.5-5.6-15.2-13.5-19.4-22.8-22.8 3.1-42.1-2.2-54.8-15.4-16-16.5-20.5-43.7-12.2-72.9 11-38.9 44.4-82.8 110.9-99.3 5.8-7.1 12.7-13.3 20.4-18.2 41.7-26.8 109.5-29.1 160.9-3.7 19.9-3.7 40.5-1.7 59.4 5.7 36.9 13.8 63.8 42.8 68.8 72.2 10.1 5.2 18.2 13.3 23.5 23.3 11.1 20.8 12.7 41.6 5.2 58.5 7 14 9.4 30 6.6 45.4zm-27.3-21.8q0 0 0 0 0 0 0 0zm-19 4.7c-6.7 0-13.2-1.6-19.1-4.7l3.1-20.5c12.9 1.3 23.5-2.7 29-11 6.2-9.3 5.2-22.9-2.6-37.6-8.7-16.5-27.6-19.1-38.1-19.2h-0.7c-26.3 0-53.1 14.9-63.9 34.4l-15.7-7.5c3.1-10.1 8.3-19.3 15.4-27.1-6.1-5.2-10.7-11.8-13.3-19.4-2.6-7.5-3.2-15.6-1.7-23.4l15.5-1.4c0.7 6.3 3.4 12.3 7.5 17.1 4.2 4.8 9.7 8.2 15.9 9.8 13-5.8 27-8.7 41.2-8.4 2 0 4 0.2 6 0.3-10.1-17.8-26.1-31.6-45.2-39-46.6-18.1-78.1 9.9-85.3 19.6-17.3 23.3-6.2 45.3 2.2 59.5l-13.8 12.7c-12.1-10.5-20.3-24.8-23-40.6-17.8 5.4-41.8 4.2-55.2-18.6l12.7-8.7c14.2 10.6 36.7 9.7 47.4-3.4 2.5-5.8 5.8-11.3 9.6-16.3 6.1-8.1 13.4-15 21.7-20.7-34.9-9.6-84.2-8-114 11.1-8.1 4.7-14.7 11.5-19.2 19.6-4.5 8.2-6.7 17.4-6.3 26.7 0 15.1 11.8 38.8 27.6 42.5l-9.2 17.9c-10.1-2.3-19.3-7.7-26.4-15.3l-13.7 17.5-13.6-6.7 13.3-35c-2.1-6.8-3.3-13.9-3.3-21.1 0-5.6 0.6-11.3 1.8-16.8-42.1 17.4-62.9 46.3-70.5 72.7-5.9 20.4-3.6 38.7 6 48.6 7.6 7.8 19.3 9.7 30.3 9l29.4-23 9.7 8.2-8.7 28.7c4.5 14.6 19.6 22.1 47 16.8 1.4-11.6 6-22.6 13.2-31.8 5.4-7.6 12.4-13.9 20.6-18.4l14.4-38.8 14.4-0.6-1.6 31.8c24.2-2.5 51.3 2.4 76.5-1.4l4.7 16.9c-37 17.1-74.8-10.8-109.2 26-12.3 13.2-7.6 24.7 0 36.3 11 16.5 31.7 6.6 52.8 0 31.9-9.8 55.1-16.9 98.9-13.3-10.5-19.8-9.5-43.8 4.5-70.2l20.6 8.2c-14.4 33.3-0.9 52.6 8.4 61.1 14.5 13.1 36.2 17.1 50.5 9.1 5.5-3 10.3-7.3 13.9-12.4 3.6-5.2 5.9-11.1 6.9-17.3 0.9-5.7 0.8-11.5-0.2-17.2-5.9 3.1-12.5 4.7-19.1 4.7z"/></svg>