<svg version="1.2" xmlns="http://www.w3.org/2000/svg" viewBox="0 0 232 169" width="232" height="169"><style>.a{stroke:#000;stroke-width:9.2}</style><path class="a" d="m157.8 39l2.4-1.6c3.2-8 8.8-14.4 16-18.4h0.8c0-0.8-0.8-0.8-0.8-1.6-3.2-5.6-8-9.6-14.4-10.4-6.4-1.6-12-0.8-17.6 2.4-5.6 3.2-9.6 8.8-11.2 15.2l-2.4 0.8c10.4 3.2 19.2 8 27.2 13.6z"/><path class="a" d="m224.2 54.2c-1.6-2.4-3.2-4-4.8-5.6q-1.2-3.6-2.4-7.2c-3.2-5.6-8-9.6-14.4-10.4-6.4-1.6-12-0.8-17.6 2.4-5.6 3.2-9.6 8.8-11.2 15.2l-16.8 9.6c-1.6 0.8-4 0.8-5.6 0.8-10.4-3.2-25.6 0-39.2 8-10.4 5.6-19.2 14.4-23.2 22.4-1.6 2.4-4 4-7.2 4-1.6 0-2.4 0-4-0.8-4-2.4-5.6-7.2-3.2-11.2 6.4-11.2 16.8-20.8 29.6-28.8 8.8-4.8 18.4-8.8 27.2-10.4q-18-7.2-38.4-7.2c-48.8 0-88 33.6-88 74.4 0 53.6 66.4 53.6 88 53.6 18.4 0 66.4 0 82.4-30.4-1.6 1.6-2.4 2.4-4 4-1.6 1.6-3.2 2.4-5.6 2.4-2.4 0-4-0.8-5.6-2.4-3.2-3.2-2.4-8 0.8-11.2 7.2-6.4 12-14.4 14.4-20.8 0.8-2.4 2.4-4.8 5.6-5.6l16-9.6c6.4 1.6 12.8 1.6 19.2-2.4 10.4-7.2 14.4-21.6 8-32.8z"/></svg>