<svg version="1.2" xmlns="http://www.w3.org/2000/svg" viewBox="0 0 571 396" width="571" height="396"><style>.a{fill:none;stroke:#3c3c3c;stroke-width:35.6}</style><path class="a" d="m463.7 91.3h35.5c9.8 0 17.8 8 17.8 17.8v177.8c0 9.8-8 17.8-17.8 17.8h-35.5c-9.8 0-17.8-8-17.8-17.8v-177.8c0-9.8 8-17.8 17.8-17.8z"/><path class="a" d="m392.6 20.2h35.5c9.8 0 17.8 8 17.8 17.8v320c0 9.8-8 17.8-17.8 17.8h-35.5c-9.9 0-17.8-8-17.8-17.8v-320c0-9.8 7.9-17.8 17.8-17.8z"/><path class="a" d="m143.7 20.2h35.5c9.8 0 17.8 8 17.8 17.8v320c0 9.8-8 17.8-17.8 17.8h-35.5c-9.8 0-17.8-8-17.8-17.8v-320c0-9.8 8-17.8 17.8-17.8z"/><path class="a" d="m72.6 91.3h35.5c9.8 0 17.8 8 17.8 17.8v177.8c0 9.8-8 17.8-17.8 17.8h-35.5c-9.9 0-17.8-8-17.8-17.8v-177.8c0-9.8 7.9-17.8 17.8-17.8z"/><path fill-rule="evenodd" class="a" d="m517 198h53.3"/><path fill-rule="evenodd" class="a" d="m197 198h177.8"/><path fill-rule="evenodd" class="a" d="m1.4 198h53.4"/></svg>