<svg version="1.2" xmlns="http://www.w3.org/2000/svg" viewBox="0 0 664 664" width="664" height="664"><style></style><path fill-rule="evenodd" d="m648.3 597.7l-66.6 66.6h-433.4l66.7-66.6zm-192.2-596.5l188.6 188.6-28.2 36.3-50.9 64.9-29.8 37.4-26.6 32.8-17.8 21.6-20.9 24.7-13.5 15.5-11.7 12.9-9.9 10.3-23.4 23.2-48.2 48.9-25.4 26.2-9.2-0.5-9.6-0.1q-24.6 0-54.6 3.8l-12.6 1.7-12.2 2-11.8 2.2-16 3.3-30.8 7.4-100 50-66.6 16.7 16.6-66.7 50-100 1.6-3.7 2.8-7.7 2.4-7.5 2.5-9.2c2.6-10.2 5.3-23 7.4-38.5q5.9-43.9 4.4-88.9l5.1-5.9 5.3-5.6 24.6-25.1 59.1-58.8 18.3-17.5 20.2-18.6 17.7-15.6 19-16.3 20.3-17 21.6-17.7 22.9-18.3 36.8-28.9 26.2-20 27.5-20.8zm-287.6 363.7q-0.7 10.9-1.8 21.8l-2.3 19.8c-1.6 11.6-3.5 22.3-5.6 32.1l-6.7 28.4 29.2 26.7 28.7-4.5c15.9-3.2 31.5-5.8 46.6-7.7q13.2-1.7 25.7-2.7zm281.3-275.8l-9.4 7.1-38.1 29.4-23.7 18.7-22.4 17.9-21.1 17.2-19.6 16.4-18.3 15.7-16.9 15-20.7 18.9-15.7 15.1-42.9 42.6 141.6 141.6 8.7-8.9 29.7-29.6 6.3-6.2 8.6-9 10.9-11.9 12.8-14.7 20.4-24.1 17.4-21.2 26.3-32.4 29.5-37 42.7-54.5z"/></svg>