<svg version="1.2" xmlns="http://www.w3.org/2000/svg" viewBox="0 0 803 648" width="803" height="648"><style></style><path  d="m131.9 323.6c-9.3-5.4-24.6-9.7-34.6-3.9-0.3 0.2-0.5 0.5-0.8 0.7-21.7-5.9-41.7-2-56.5 19.4-14.2 20.5-11.3 50 2.1 69.9 31.8 47.3 120.7 35 123.2-26.8 0.9-23.8-13.3-47.4-33.4-59.3zm-37.9 83.4c0.4 1.5 1.1 2.9 2.1 4-7.4-0.9-14.7-3.1-20.5-6.3 6.3 1.8 12.7 2.7 18.4 2.3z"/><path  d="m689.9 308.8c-4.2 3-7.8 6.8-11 11-14.2 4.2-27.1 15.8-31.6 30-9.1 28.7 4 63.5 29.1 79.8 40.3 26.1 104.7-9 111.6-54.2 6.9-45.3-57.7-95.7-98.1-66.6z"/><path  d="m186.3 564.5c-6.7-35.7-23-74.9-57.2-91.7-38.5-19.1-82 3.6-105.1 35.2-26.5 36.3-28 88.7-19 130.9 1.2 5.9 7.1 7.2 11.5 5.2 28.1 2 56.2 3.2 84.4 3 20.4-0.2 48.8 0.3 68.2-9.7 3.6 3.4 9.3 4.2 13.4 0 16.9-17.9 7.8-51.6 3.8-72.9zm-47.6-48.7c-1.9 0.1-3.7 0.7-5.5 1.6-1.5-1.6-3.2-3.1-4.8-4.6-4.3-5.7-9.5-11-15.8-15.8 3.9 1.2 7.7 2.9 11.5 5.2 5.6 3.6 10.4 8.2 14.6 13.6z"/><path  d="m706.3 479.3c-67.4-2.4-91.7 79.4-90.1 132.4 0.2 8.1 11.4 11.4 15.8 6.1 0.6 2.9 0.8 5.5 3.3 8.7 2.3 3 7-0.9 5.1-4q-0.4-0.2-0.8-0.4c1.7 0.2 3.4 0.2 5.1-0.1 28.1-5.2 58.9-0.4 87.2 0.9 17 0.7 55.1 7.4 64.4-12.3 0.8-1.7 1.1-3.4 1.1-5 0.5-1 1-2 1.2-3.3 10-54.4-35.6-120.9-92.3-123zm15.8 29c-1.4 1.3-2.6 2.8-3.4 4.5-1-0.5-2-0.8-3-1-1.2-1.2-2.5-2.2-4-3.1-1.4-0.7-2.9-1.1-4.4-1.3-0.4-0.2-0.8-0.6-1.2-0.8 5.9-0.3 11.2 0.4 16 1.7zm-33.1 1.6c-9.6 6.7-17.6 14.1-23.9 22.2q-4.8 4.1-9.5 8.4c8-13.9 18.8-25.1 33.4-30.6z"/><path  d="m221.3 51.8c-2.9 3.3-4.1 6.9-3.9 10.4-48.8 42.7-24.9 142.5 31.8 186.5 9.8 7.6 20.6 14.1 31.8 19.9q-1.2 1.6-2.3 3.2c-15.2 21.9-30.6 43.8-50.8 61.3-10.3 8.9-1.1 23.3 10.1 24.3 63 5.7 127.4-8.9 158.2-62.8 68.5-1.1 136.3-29.2 174.2-84.9 124.1-182.1-245.4-272.6-349.1-157.9zm-0.9 104.2c-4-14.5-4.4-28.5-1.3-41.2-2.2 12.6-1.3 25.9 2.6 40.6q-0.7 0.2-1.3 0.6zm313.9-73.2c-6.5-7.7-13.7-15.1-21.5-21.8 10.1 6.1 18.9 13.2 26.4 21.3-1.7-0.2-3.4-0.1-4.9 0.5z"/></svg>