<?xml version="1.0" standalone="no"?>
<!DOCTYPE svg PUBLIC "-//W3C//DTD SVG 20010904//EN"
 "http://www.w3.org/TR/2001/REC-SVG-20010904/DTD/svg10.dtd">
<svg version="1.0" xmlns="http://www.w3.org/2000/svg"
 viewBox="0 0 2600.000000 2600.000000"
 preserveAspectRatio="xMidYMid meet">
<metadata>
Created by potrace 1.15, written by Peter Selinger 2001-2017
</metadata>
<g transform="translate(0.000000,2600.000000) scale(0.100000,-0.100000)"
fill="#000000" stroke="none">
<path d="M11470 20630 c-450 -21 -859 -59 -1285 -121 -2053 -298 -3948 -1113
-5406 -2328 -427 -355 -852 -784 -1186 -1198 -1804 -2231 -2129 -5060 -864
-7528 567 -1107 1426 -2092 2522 -2891 1767 -1289 4026 -2025 6399 -2083 2626
-65 5112 679 7058 2112 74 54 91 71 82 82 -9 11 3 15 62 25 133 22 389 81 547
127 831 240 1572 671 2180 1268 426 418 735 841 996 1364 87 174 220 493 261
624 l18 57 372 0 372 0 63 33 c226 116 214 433 -20 541 -43 20 -65 21 -338 24
-161 2 -293 7 -293 10 0 4 7 45 15 92 46 262 69 570 63 845 l-5 220 121 50
c104 42 129 57 178 105 43 43 60 69 72 110 46 154 -19 302 -160 367 -66 30
-169 34 -228 9 -56 -23 -63 -21 -70 27 -10 63 -61 277 -96 400 -65 232 -167
506 -267 720 l-46 97 36 78 c95 203 146 643 178 1547 15 422 15 1602 0 1930
-39 866 -89 1092 -286 1291 -63 63 -100 90 -171 127 -50 26 -118 54 -150 62
-78 21 -238 21 -339 0 -225 -47 -700 -275 -1425 -683 -181 -102 -680 -393
-736 -428 -18 -13 -30 -4 -150 107 -882 825 -1904 1472 -3094 1959 -1039 425
-2188 701 -3375 810 -437 40 -1195 59 -1605 40z m1105 -1201 c961 -54 1868
-222 2740 -506 1222 -398 2359 -1032 3214 -1794 l105 -93 -25 -17 c-13 -10
-67 -48 -119 -85 -52 -37 -119 -87 -147 -111 -45 -38 -61 -45 -105 -49 -257
-20 -341 -28 -463 -45 -437 -62 -952 -210 -1338 -383 l-57 -26 -133 46 c-531
182 -2150 473 -3177 569 -246 23 -570 31 -682 15 -260 -35 -428 -141 -552
-348 -101 -171 -122 -277 -104 -532 32 -449 270 -1505 593 -2625 227 -788 389
-1243 511 -1437 l24 -37 -10 -189 c-11 -207 0 -509 25 -740 86 -776 354 -1506
797 -2170 48 -72 85 -132 82 -132 -4 0 -59 -9 -123 -20 -97 -16 -401 -60 -422
-60 -4 0 -10 21 -14 48 -56 387 -189 803 -380 1182 -429 857 -1128 1576 -2090
2150 -286 171 -854 442 -983 469 -333 69 -639 -217 -591 -554 20 -144 93 -261
214 -345 22 -15 96 -51 165 -80 162 -69 575 -278 710 -360 980 -590 1646
-1382 1894 -2250 38 -131 79 -320 72 -327 -2 -3 -138 -4 -302 -4 -1106 2
-2214 185 -3241 534 -305 104 -571 210 -938 376 -117 52 -192 71 -285 71 -271
-1 -497 -171 -576 -435 -26 -88 -25 -239 4 -330 44 -141 142 -269 259 -337
131 -76 534 -250 878 -378 1675 -624 3598 -837 5450 -604 504 64 1083 180
1543 310 474 134 875 278 1372 492 148 63 205 80 326 92 353 37 693 -151 826
-455 125 -285 -21 -608 -384 -847 -117 -78 -163 -117 -213 -181 -47 -62 -578
-316 -1047 -501 -979 -387 -1991 -613 -3148 -703 -283 -22 -1219 -25 -1480 -5
-991 76 -1746 216 -2579 479 -1242 390 -2357 1006 -3281 1811 -176 154 -528
503 -671 667 -844 964 -1349 2020 -1509 3160 -62 441 -67 952 -15 1395 131
1103 607 2172 1380 3100 1326 1592 3402 2682 5765 3029 719 105 1518 141 2235
100z m9042 -2799 c6 -863 -6 -1359 -48 -1925 -10 -138 -13 -153 -39 -190 -73
-107 -120 -238 -120 -341 0 -28 -7 -71 -16 -95 -14 -36 -17 -92 -18 -304 -2
-278 -8 -322 -62 -483 -80 -239 -229 -429 -413 -526 -118 -62 -212 -87 -346
-93 -192 -9 -336 26 -539 130 -129 66 -235 145 -376 282 -145 140 -195 167
-321 173 -105 5 -175 -13 -252 -67 -174 -122 -219 -368 -100 -548 19 -29 86
-101 148 -162 513 -493 1160 -703 1760 -571 403 88 770 354 1006 729 l56 90
22 -82 c59 -226 110 -503 95 -517 -5 -4 -252 -108 -549 -231 l-540 -223 -57
-57 c-43 -42 -60 -68 -72 -109 -60 -203 76 -392 284 -392 66 0 83 6 507 182
241 100 444 185 452 188 11 4 12 -12 7 -94 -14 -194 -56 -491 -87 -607 l-10
-38 -382 3 -382 3 -51 -27 c-151 -80 -209 -252 -135 -403 36 -72 85 -117 161
-146 43 -16 80 -19 268 -20 119 -1 243 -4 274 -8 l57 -6 -33 -75 c-342 -779
-937 -1443 -1689 -1884 -239 -141 -597 -298 -872 -383 -89 -28 -320 -87 -421
-108 -20 -4 -21 0 -27 114 -21 392 -176 765 -449 1082 -32 37 -58 70 -58 73 0
2 60 48 133 102 222 163 248 196 255 329 4 68 1 89 -18 133 -44 103 -164 182
-274 182 -87 0 -133 -24 -341 -177 -110 -82 -214 -159 -232 -171 l-32 -23 -50
25 c-93 48 -249 106 -374 140 -200 55 -323 71 -552 70 -314 0 -525 -46 -845
-181 -338 -142 -537 -218 -805 -308 l-280 -94 -43 47 c-109 118 -286 361 -394
542 -384 638 -573 1355 -556 2105 l5 220 48 74 c69 106 94 176 105 289 20 218
-29 367 -172 518 -67 70 -70 76 -114 206 -173 513 -416 1374 -569 2018 -68
284 -155 687 -155 718 0 14 6 18 28 15 799 -88 1823 -257 2487 -409 216 -50
249 -60 316 -104 102 -66 174 -85 319 -85 149 0 225 21 323 91 34 24 129 77
210 118 504 253 1120 412 1677 433 91 3 172 9 181 14 9 4 20 4 25 -1 5 -5 101
-14 214 -19 464 -24 864 -106 1287 -267 183 -69 249 -81 351 -66 251 39 423
240 423 492 0 180 -86 333 -242 428 -42 25 -219 94 -377 146 -61 21 -110 42
-107 47 16 26 896 537 1285 747 l205 111 9 -27 c4 -15 10 -358 13 -762z"/>
<path d="M17693 12456 c-97 -31 -188 -109 -234 -197 -12 -24 -35 -92 -51 -152
-121 -454 -377 -759 -728 -868 -99 -31 -308 -34 -410 -5 -309 86 -585 341
-764 709 -71 145 -115 196 -214 244 -73 36 -80 38 -177 38 -93 0 -105 -2 -165
-32 -184 -90 -273 -296 -211 -482 28 -81 107 -239 178 -353 237 -384 577 -680
949 -827 511 -202 1061 -141 1514 170 338 231 607 602 749 1034 68 208 88 316
74 401 -23 134 -104 241 -223 298 -56 27 -78 31 -155 33 -55 2 -106 -3 -132
-11z"/>
<path d="M19342 11146 c-249 -48 -459 -158 -627 -330 -49 -51 -105 -118 -124
-149 -148 -250 -132 -491 44 -655 110 -103 238 -150 430 -159 311 -14 620 109
845 337 168 170 253 383 221 555 -34 184 -166 319 -376 385 -90 28 -304 36
-413 16z"/>
<path d="M17330 10459 c-300 -72 -799 -190 -1108 -264 -621 -148 -631 -151
-692 -241 -38 -55 -64 -152 -55 -207 16 -102 84 -196 172 -237 99 -46 47 -56
1273 234 826 196 1136 273 1166 291 90 53 144 145 146 247 2 126 -53 220 -161
275 -101 53 -116 51 -741 -98z"/>
</g>
</svg>
