<svg version="1.2" xmlns="http://www.w3.org/2000/svg" viewBox="0 0 2190 1628" width="2190" height="1628"><style></style><path  d="m955 6c-45 2.1-85.9 5.9-128.5 12.1-205.3 29.8-394.8 111.3-540.6 232.8-42.7 35.5-85.2 78.4-118.6 119.8-180.4 223.1-212.9 506-86.4 752.8 56.7 110.7 142.6 209.2 252.2 289.1 176.7 128.9 402.6 202.5 639.9 208.3 262.6 6.5 511.2-67.9 705.8-211.2 7.4-5.4 9.1-7.1 8.2-8.2-0.9-1.1 0.3-1.5 6.2-2.5 13.3-2.2 38.9-8.1 54.7-12.7 83.1-24 157.2-67.1 218-126.8 42.6-41.8 73.5-84.1 99.6-136.4 8.7-17.4 22-49.3 26.1-62.4l1.8-5.7h37.2 37.2l6.3-3.3c22.6-11.6 21.4-43.3-2-54.1-4.3-2-6.5-2.1-33.8-2.4-16.1-0.2-29.3-0.7-29.3-1 0-0.4 0.7-4.5 1.5-9.2 4.6-26.2 6.9-57 6.3-84.5l-0.5-22 12.1-5c10.4-4.2 12.9-5.7 17.8-10.5 4.3-4.3 6-6.9 7.2-11 4.6-15.4-1.9-30.2-16-36.7-6.6-3-16.9-3.4-22.8-0.9-5.6 2.3-6.3 2.1-7-2.7-1-6.3-6.1-27.7-9.6-40-6.5-23.2-16.7-50.6-26.7-72l-4.6-9.7 3.6-7.8c9.5-20.3 14.6-64.3 17.8-154.7 1.5-42.2 1.5-160.2 0-193-3.9-86.6-8.9-109.2-28.6-129.1-6.3-6.3-10-9-17.1-12.7-5-2.6-11.8-5.4-15-6.2-7.8-2.1-23.8-2.1-33.9 0-22.5 4.7-70 27.5-142.5 68.3-18.1 10.2-68 39.3-73.6 42.8-1.8 1.3-3 0.4-15-10.7-88.2-82.5-190.4-147.2-309.4-195.9-103.9-42.5-218.8-70.1-337.5-81-43.7-4-119.5-5.9-160.5-4zm110.5 120.1c96.1 5.4 186.8 22.2 274 50.6 122.2 39.8 235.9 103.2 321.4 179.4l10.5 9.3-2.5 1.7c-1.3 1-6.7 4.8-11.9 8.5-5.2 3.7-11.9 8.7-14.7 11.1-4.5 3.8-6.1 4.5-10.5 4.9-25.7 2-34.1 2.8-46.3 4.5-43.7 6.2-95.2 21-133.8 38.3l-5.7 2.6-13.3-4.6c-53.1-18.2-215-47.3-317.7-56.9-24.6-2.3-57-3.1-68.2-1.5-26 3.5-42.8 14.1-55.2 34.8-10.1 17.1-12.2 27.7-10.4 53.2 3.2 44.9 27 150.5 59.3 262.5 22.7 78.8 38.9 124.3 51.1 143.7l2.4 3.7-1 18.9c-1.1 20.7 0 50.9 2.5 74 8.6 77.6 35.4 150.6 79.7 217 4.8 7.2 8.5 13.2 8.2 13.2-0.4 0-5.9 0.9-12.3 2-9.7 1.6-40.1 6-42.2 6-0.4 0-1-2.1-1.4-4.8-5.6-38.7-18.9-80.3-38-118.2-42.9-85.7-112.8-157.6-209-215-28.6-17.1-85.4-44.2-98.3-46.9-33.3-6.9-63.9 21.7-59.1 55.4 2 14.4 9.3 26.1 21.4 34.5 2.2 1.5 9.6 5.1 16.5 8 16.2 6.9 57.5 27.8 71 36 98 59 164.6 138.2 189.4 225 3.8 13.1 7.9 32 7.2 32.7-0.2 0.3-13.8 0.4-30.2 0.4-110.6-0.2-221.4-18.5-324.1-53.4-30.5-10.4-57.1-21-93.8-37.6-11.7-5.2-19.2-7.1-28.5-7.1-27.1 0.1-49.7 17.1-57.6 43.5-2.6 8.8-2.5 23.9 0.4 33 4.4 14.1 14.2 26.9 25.9 33.7 13.1 7.6 53.4 25 87.8 37.8 167.5 62.4 359.8 83.7 545 60.4 50.4-6.4 108.3-18 154.3-31 47.4-13.4 87.5-27.8 137.2-49.2 14.8-6.3 20.5-8 32.6-9.2 35.3-3.7 69.3 15.1 82.6 45.5 12.5 28.5-2.1 60.8-38.4 84.7-11.7 7.8-16.3 11.7-21.3 18.1-4.7 6.2-57.8 31.6-104.7 50.1-97.9 38.7-199.1 61.3-314.8 70.3-28.3 2.2-121.9 2.5-148 0.5-99.1-7.6-174.6-21.6-257.9-47.9-124.2-39-235.7-100.6-328.1-181.1-17.6-15.4-52.8-50.3-67.1-66.7-84.4-96.4-134.9-202-150.9-316-6.2-44.1-6.7-95.2-1.5-139.5 13.1-110.3 60.7-217.2 138-310 132.6-159.2 340.2-268.2 576.5-302.9 71.9-10.5 151.8-14.1 223.5-10zm904.2 279.9c0.6 86.3-0.6 135.9-4.8 192.5-1 13.8-1.3 15.3-3.9 19-7.3 10.7-12 23.8-12 34.1 0 2.8-0.7 7.1-1.6 9.5-1.4 3.6-1.7 9.2-1.8 30.4-0.2 27.8-0.8 32.2-6.2 48.3-8 23.9-22.9 42.9-41.3 52.6-11.8 6.2-21.2 8.7-34.6 9.3-19.2 0.9-33.6-2.6-53.9-13-12.9-6.6-23.5-14.5-37.6-28.2-14.5-14-19.5-16.7-32.1-17.3-10.5-0.5-17.5 1.3-25.2 6.7-17.4 12.2-21.9 36.8-10 54.8 1.9 2.9 8.6 10.1 14.8 16.2 51.3 49.3 116 70.3 176 57.1 40.3-8.8 77-35.4 100.6-72.9l5.6-9 2.2 8.2c5.9 22.6 11 50.3 9.5 51.7-0.5 0.4-25.2 10.8-54.9 23.1l-54 22.3-5.7 5.7c-4.3 4.2-6 6.8-7.2 10.9-6 20.3 7.6 39.2 28.4 39.2 6.6 0 8.3-0.6 50.7-18.2 24.1-10 44.4-18.5 45.2-18.8 1.1-0.4 1.2 1.2 0.7 9.4-1.4 19.4-5.6 49.1-8.7 60.7l-1 3.8-38.2-0.3-38.2-0.3-5.1 2.7c-15.1 8-20.9 25.2-13.5 40.3 3.6 7.2 8.5 11.7 16.1 14.6 4.3 1.6 8 1.9 26.8 2 11.9 0.1 24.3 0.4 27.4 0.8l5.7 0.6-3.3 7.5c-34.2 77.9-93.7 144.3-168.9 188.4-23.9 14.1-59.7 29.8-87.2 38.3-8.9 2.8-32 8.7-42.1 10.8-2 0.4-2.1 0-2.7-11.4-2.1-39.2-17.6-76.5-44.9-108.2-3.2-3.7-5.8-7-5.8-7.3 0-0.2 6-4.8 13.3-10.2 22.2-16.3 24.8-19.6 25.5-32.9 0.4-6.8 0.1-8.9-1.8-13.3-4.4-10.3-16.4-18.2-27.4-18.2-8.7 0-13.3 2.4-34.1 17.7-11 8.2-21.4 15.9-23.2 17.1l-3.2 2.3-5-2.5c-9.3-4.8-24.9-10.6-37.4-14-20-5.5-32.3-7.1-55.2-7-31.4 0-52.5 4.6-84.5 18.1-33.8 14.2-53.7 21.8-80.5 30.8l-28 9.4-4.3-4.7c-10.9-11.8-28.6-36.1-39.4-54.2-38.4-63.8-57.3-135.5-55.6-210.5l0.5-22 4.8-7.4c6.9-10.6 9.4-17.6 10.5-28.9 2-21.8-2.9-36.7-17.2-51.8-6.7-7-7-7.6-11.4-20.6-17.3-51.3-41.6-137.4-56.9-201.8-6.8-28.4-15.5-68.7-15.5-71.8 0-1.4 0.6-1.8 2.8-1.5 79.9 8.8 182.3 25.7 248.7 40.9 21.6 5 24.9 6 31.6 10.4 10.2 6.6 17.4 8.5 31.9 8.5 14.9 0 22.5-2.1 32.3-9.1 3.4-2.4 12.9-7.7 21-11.8 50.4-25.3 112-41.2 167.7-43.3 9.1-0.3 17.2-0.9 18.1-1.4 0.9-0.4 2-0.4 2.5 0.1 0.5 0.5 10.1 1.4 21.4 1.9 46.4 2.4 86.4 10.6 128.7 26.7 18.3 6.9 24.9 8.1 35.1 6.6 25.1-3.9 42.3-24 42.3-49.2 0-18-8.6-33.3-24.2-42.8-4.2-2.5-21.9-9.4-37.7-14.6-6.1-2.1-11-4.2-10.7-4.7 1.6-2.6 89.6-53.7 128.5-74.7l20.5-11.1 0.9 2.7c0.4 1.5 1 35.8 1.3 76.2z"/><path  d="m1577.3 823.4c-9.7 3.1-18.8 10.9-23.4 19.7-1.2 2.4-3.5 9.2-5.1 15.2-12.1 45.4-37.7 75.9-72.8 86.8-9.9 3.1-30.8 3.4-41 0.5-30.9-8.6-58.5-34.1-76.4-70.9-7.1-14.5-11.5-19.6-21.4-24.4-7.3-3.6-8-3.8-17.7-3.8-9.3 0-10.5 0.2-16.5 3.2-18.4 9-27.3 29.6-21.1 48.2 2.8 8.1 10.7 23.9 17.8 35.3 23.7 38.4 57.7 68 94.9 82.7 51.1 20.2 106.1 14.1 151.4-17 33.8-23.1 60.7-60.2 74.9-103.4 6.8-20.8 8.8-31.6 7.4-40.1-2.3-13.4-10.4-24.1-22.3-29.8-5.6-2.7-7.8-3.1-15.5-3.3-5.5-0.2-10.6 0.3-13.2 1.1z"/><path  d="m1742.2 954.4c-24.9 4.8-45.9 15.8-62.7 33-4.9 5.1-10.5 11.8-12.4 14.9-14.8 25-13.2 49.1 4.4 65.5 11 10.3 23.8 15 43 15.9 31.1 1.4 62-10.9 84.5-33.7 16.8-17 25.3-38.3 22.1-55.5-3.4-18.4-16.6-31.9-37.6-38.5-9-2.8-30.4-3.6-41.3-1.6z"/><path  d="m1541 1023.1c-30 7.2-79.9 19-110.8 26.4-62.1 14.8-63.1 15.1-69.2 24.1-3.8 5.5-6.4 15.2-5.5 20.7 1.6 10.2 8.4 19.6 17.2 23.7 9.9 4.6 4.7 5.6 127.3-23.4 82.6-19.6 113.6-27.3 116.6-29.1 9-5.3 14.4-14.5 14.6-24.7 0.2-12.6-5.3-22-16.1-27.5-10.1-5.3-11.6-5.1-74.1 9.8z"/></svg>