<svg version="1.2" xmlns="http://www.w3.org/2000/svg" viewBox="0 0 739 739" width="739" height="739"><style>.a{fill:#1d1d1b}</style><path class="a" d="m672.1 347q-13.5-8.2-27.7-15.1-14.2-6.8-29-12.3-14.8-5.5-30.1-9.5-15.2-4-30.8-6.5 0-2.4 0-4.8-0.1-2.4-0.2-4.8-0.2-2.4-0.4-4.7-0.2-2.4-0.5-4.8-5.9-10.2-12.4-20-6.5-9.8-13.8-19.1-7.2-9.4-15-18.2-7.9-8.7-16.3-16.9c-37.5-37.5-96-38.3-96-38.3 0 0 0-1.9-0.9-16.7-0.9-14.9-26.5-15.3-26.5-15.3l0.8-33.6c2.5-0.4 5-1.1 7.4-2.2 2.4-1 4.6-2.4 6.6-4 2-1.7 3.8-3.6 5.3-5.7 1.5-2.1 2.8-4.4 3.7-6.9 4.3-16-5.8-30.8-27.7-31.6-21.8-0.7-34 13.6-30.8 29.8 3.1 16.1 22.2 19.5 22.2 19.5v35.5q-2.7 0.3-5.5 0.7-2.7 0.5-5.4 1-2.7 0.6-5.3 1.4-2.7 0.7-5.3 1.6c-9.4 3.5-9.7 25-9.7 25 0 0-28.9 2.4-35.5 4.3q-10.6 3.8-20.6 8.9-10 5.2-19.3 11.5-9.3 6.3-17.7 13.7-8.5 7.4-15.9 15.9-7.7 8.3-14.2 17.5-6.4 9.3-11.7 19.2-5.3 10-9.3 20.6-4 10.5-6.6 21.5-9.3 2.4-18.6 5.1-9.3 2.7-18.5 5.6-9.2 2.9-18.3 6.1-9.1 3.3-18.1 6.7c-39.4 15.3-75 39-87.5 57.4-4.9 9.1-8.6 18.9-10.9 29-2.3 10.1-3.2 20.4-2.7 30.8 0.5 10.3 2.3 20.5 5.6 30.4 3.2 9.8 7.8 19.2 13.5 27.8 31.3 42.6 84 71.5 159 97.6 23.1 8.5 46.6 15.8 70.5 21.7 23.9 6 48.1 10.6 72.5 14 24.3 3.3 48.9 5.4 73.5 6.1 24.6 0.7 49.2 0 73.8-1.9 123-9 163.6-48.5 199.1-71.9 9.4-6.2 18.1-13.6 25.8-21.9 7.7-8.3 14.4-17.5 19.9-27.4 5.4-9.9 9.7-20.4 12.7-31.3 3-10.9 4.7-22.2 5-33.5 3.1-51.9-12.2-73.4-62.2-107zm-424.2-121.5c6.4-6.1 13.4-11.6 20.8-16.5 7.5-4.8 15.3-8.9 23.5-12.3 8.2-3.4 16.7-6 25.4-7.9 8.7-1.8 17.5-2.8 26.4-3 39.4-2.4 82.8 5.3 109 22.6q4.4 2.5 8.7 5.3 4.2 2.8 8.3 6 4 3.1 7.7 6.5 3.8 3.5 7.3 7.2c2.3 2.4-16.9 0-17.2 2-0.4 2-1.2 8.9 0 9.4q4.1 0.1 8.2 0.5 4.2 0.4 8.3 0.9 4.1 0.5 8.2 1.2 4.1 0.7 8.1 1.6c2.4 2.4 28.2 25.8 32.4 49.3q1.2 7.7 1.9 15.5 0.6 7.9 0.6 15.7 0 7.8-0.6 15.7-0.7 7.8-1.9 15.6c-1.5-1.3-71.1-33.7-72.6-32.9-1.5 0.7-3.9 7.4-2.8 8.6 1.2 1.3 74.3 31.6 75 35.1 0.8 3.5-1.6 22.3-1.6 22.3 0 0-72.3-35.9-75-34-2.8 1.9-6.3 7.1-4.3 8.6 2 1.5 78.9 34.4 78.5 36.8-0.3 2.3-10.1 9.3-15.2 11.7l-7 3.1q-7.4-4.7-14.9-9.2-7.5-4.5-15.2-8.8-7.6-4.3-15.3-8.4-7.8-4.1-15.6-7.9c-2.6 1.1-8.1 3.5-5.4 7.3 2.8 3.9 54.6 30.2 51.9 32.8-2.8 2.6-48.4 10.2-113.6 9-65.3-1.3-126.2-4.6-164.2-47.6q-3.9-6.2-7-12.9-3-6.7-5-13.7-2.1-7.1-3.1-14.3-0.9-7.3-0.9-14.6c1.2-9.9 3.2-19.6 5.8-29.1 2.7-9.5 6.1-18.8 10.1-27.8 4.1-9 8.9-17.7 14.3-25.9 5.4-8.3 11.4-16.1 18-23.5zm41.7 13.8c4-1.3 9-8.7 17.3-14.9q3.5-1.7 7.1-3.3 3.6-1.5 7.2-2.9 3.7-1.4 7.4-2.6 3.8-1.2 7.5-2.2 0.5-1.1 0.6-2.2 0.1-1.2-0.1-2.3-0.2-1.1-0.7-2.2-0.5-1-1.3-1.8c-2.4-2.4-12.5-2-30.1 5.4q-3.7 1.5-7 3.7-3.3 2.2-6.3 4.9-2.9 2.7-5.4 5.8-2.4 3.2-4.3 6.7c-0.9 2.4 4.2 9 8.1 7.9zm-53.1 139.3q5.2 3.1 10.7 5.7 5.4 2.6 11.1 4.7 5.6 2.1 11.4 3.7 5.9 1.7 11.8 2.8c2.2 0.3 4.4 0.2 6.6-0.3 2.1-0.5 4.2-1.3 6-2.6 1.9-1.2 3.5-2.7 4.8-4.5 1.3-1.8 2.3-3.8 2.9-6 2.3-10.5-12.6-43.7-19.2-66q-1.3-6.1-2-12.4-0.6-6.3-0.5-12.6 0.1-6.3 0.9-12.6 0.8-6.3 2.4-12.4c0-3.8-18.8-7.1-22.7-5.8-11.7 4-34.3 57.1-35.8 79.7-1.5 22.6 1.5 31.6 11.6 38.6zm6.6-60.5c4.4-23.8 16.9-44.5 21.9-45.7 2 0 2.4 1.6 2 5.1q0 8.7 0.5 17.3 0.5 8.6 1.7 17.2 1.1 8.6 2.8 17.1 1.7 8.4 4 16.8c8.6 27.4 10.5 31.2 7.4 32.7q-5.5-0.6-10.9-1.6-5.3-1.1-10.6-2.7-5.2-1.6-10.3-3.6-5.1-2.1-10-4.6-0.9-5.9-1.3-12-0.4-6-0.2-12 0.2-6.1 0.9-12.1 0.8-6 2.1-11.9zm437.5 184q-2.6 2.2-5.3 4.3-2.7 2.1-5.6 4-2.8 1.9-5.7 3.6-3 1.8-6 3.4c-2 1-53.1-41.9-55.5-41.5-2.4 0.4-7.8 6.7-5.8 9 2 2.2 55.8 37.5 53.2 39.9q-2.5 1.3-5.1 2.6-2.5 1.2-5.1 2.4-2.6 1.2-5.3 2.3-2.6 1-5.3 2c-1.8 0.7-29.2-22.6-30.9-22.6-1.6 0-8.2 5-6.2 8.1 2 3.2 27 18 25.8 19.3q-21.5 6.4-43.4 11.3-21.9 4.9-44.1 8.2-22.2 3.2-44.6 4.9-22.4 1.7-44.8 1.7-31.8 0.8-63.6-0.7-31.7-1.5-63.3-5.2-31.6-3.7-62.8-9.7-31.2-6-61.9-14.1-19.1-5.6-37.6-12.5-18.6-6.8-36.6-15-18.1-8.2-35.5-17.6-17.4-9.4-34.1-20.1c-5.6-5.5-10.1-12-13.1-19.3-3.1-7.2-4.7-15-4.7-22.9 0-7.8 1.6-15.6 4.7-22.8 3-7.3 7.5-13.9 13.1-19.3 8.9-7.7 18.3-14.9 28.1-21.5 9.8-6.5 20-12.5 30.6-17.8 10.5-5.4 21.3-10.1 32.4-14.1 11.1-4 22.4-7.4 33.9-10 3.4 0 0.9 54.7 25 79.7 24.1 25 60.6 41.4 116.9 48.8q18.7 2.9 37.7 4.3 18.9 1.4 37.9 1.1 19-0.2 37.9-2 18.9-1.9 37.6-5.3 12.1-2.3 23.9-5.8 11.8-3.5 23.2-8 11.4-4.6 22.3-10.3 10.9-5.6 21.2-12.3 0.8-0.6 1.5-1.4 0.6-0.8 1.1-1.7 0.4-0.9 0.7-1.9 0.2-1 0.2-2c0-0.7 0.8-75.7 2-77 1.3-1.2 68.8 8.7 105.4 37.5 36.6 28.9 46.1 46.2 45 77.8-0.4 5.5-1.4 11-2.9 16.4-1.5 5.4-3.5 10.6-6 15.6-2.6 5-5.5 9.7-9 14.1-3.4 4.4-7.3 8.5-11.5 12.1zm-19.5-57.8c-2.7 0-9.4 4.7-10.9 5.1-1.5 0.3 32.4 23.4 36.7 25 4.2 1.6 5.1-3.1 6.2-5.5q-3.5-3.7-7.2-7.2-3.8-3.4-7.8-6.5-4-3.2-8.3-6-4.2-2.8-8.7-5.3zm17.6-9.8c0 0 11.8 11.4 13.3 12.5 1.5 1.2 2-1.5 3.5-3.5 1.5-2-3.9-11.7-9-13.6-5.1-1.9-6.3 2.8-7.8 4.3zm-22.2-18.4c-0.6-5.1-2.5-9.9-5.3-14.1-2.9-4.2-6.7-7.7-11.2-10.1-4.4-2.5-9.4-3.8-14.5-4-5.1-0.1-10.2 1-14.8 3.2-3.9 1.7-7.4 4.2-10.2 7.4-2.9 3.2-5 7-6.1 11.1-1.2 4.1-1.5 8.5-0.8 12.7 0.6 4.2 2.2 8.2 4.6 11.8 10.5 18 63.3 11.7 58.3-18zm-46.1 10.2c-1.3-2.2-2-4.6-2.2-7.1-0.2-2.5 0.1-5.1 1-7.4 0.8-2.4 2.2-4.5 3.9-6.4 1.8-1.8 3.9-3.2 6.3-4.1 2.9-0.5 5.8-0.5 8.7 0.2 2.9 0.7 5.6 1.9 7.9 3.7 2.4 1.7 4.3 4 5.8 6.5 1.4 2.6 2.3 5.4 2.6 8.4 1.8 14.4-28.2 17.5-34 6.2zm-94.2 44.9q-4 1.1-7.6 3.2-3.7 2-6.8 4.9-3 2.8-5.3 6.3-2.3 3.5-3.8 7.5c0 3.2 0.5 6.4 1.5 9.5 1.1 3 2.7 5.8 4.8 8.3 2.1 2.5 4.6 4.5 7.4 6.1 2.8 1.6 5.9 2.6 9.1 3.1 17.9 2.6 48.4-15.7 42.1-34-6.2-18.4-30.1-18-41.4-14.9zm25.8 23.9c-4.3 7.7-20.7 13.2-27.4 7-1.7-1.8-2.9-4.1-3.3-6.6-0.4-2.5 0-5 1-7.3 1.1-2.3 2.8-4.2 4.9-5.5 2.2-1.3 4.7-1.9 7.2-1.8 8-0.7 21.9 6.3 17.6 14.2zm-182.4-11.8c-6.4 0.4-12.4 3.2-16.9 7.8-4.5 4.6-7.2 10.7-7.5 17.1-0.3 6.4 1.8 12.7 5.9 17.7 4 5 9.8 8.3 16.1 9.3 33.3 8.2 55.5-12.5 53.5-31.6-1.9-19.2-41.7-21.7-51.1-20.3zm11.7 38.6c-17.5 0-32-20.6-11.3-25.7q3.7-0.2 7.5 0.2 3.7 0.4 7.3 1.5 3.6 1 6.9 2.7 3.4 1.7 6.4 3.8c6.7 7 0.8 17.9-16.8 17.5zm-176.2-70.2c-5.5 0.4-10.8 2.6-15.1 6.1-4.3 3.6-7.4 8.3-8.9 13.7-1.5 5.4-1.3 11 0.6 16.3 1.8 5.2 5.3 9.8 9.8 13 17.5 15.3 69.1 9.9 70.3-16.7 1.1-26.7-40-35.2-56.7-32.4zm2 41c-18-8.6-10.2-26.2-3.1-27 10.9-1.3 39 3.1 41.8 16.4 2.7 13.2-20.8 19.2-38.7 10.6zm-91.5-114.5c-4.5 0.2-8.9 1.6-12.8 3.9-3.9 2.4-7.1 5.7-9.4 9.6-2.3 3.9-3.6 8.4-3.7 12.9-0.1 4.5 0.9 9 2.9 13.1 10.2 20.2 56.3 21.9 62.5-8.2 6.3-30.2-26.1-32.2-39.5-31.3zm23.9 29.8c-4.6 13.2-19.9 12.5-30.1 5.8-10.3-6.6-1-20.6 7.5-22.7 10.9-2.8 27.4 3.5 22.6 16.9zm387.1-110.7c2.4 0 1.5-6.6 0-9.4q-5.9-3.3-12-6.3-6.2-3-12.4-5.7-6.3-2.7-12.7-5-6.4-2.4-12.9-4.4c-1.5-0.1-1.1 10.9 1.2 12.4q5.9 2.7 11.9 5.2 6.1 2.5 12.2 4.8 6.1 2.3 12.3 4.4 6.2 2.1 12.4 4zm-163.2-207.7c-1.9-1.9-3.1-4.2-3.6-6.7-0.6-2.6-0.3-5.2 0.6-7.6 1-2.4 2.6-4.5 4.7-6 2.2-1.5 4.7-2.3 7.3-2.3 13.4-1.7 24.1 5 21.9 16.3-2.3 11.4-25.9 9.8-30.9 6.3zm10.9 63.6c14.8 0.8 20.3 4.4 22.2 9 1.9 4.6 0 5.5-4.6 6.3-4.6 0.7-29.4 0-33.6 0.7q-1.1 0.1-2.2-0.2-1-0.4-1.8-1.2-0.7-0.8-1-1.8-0.4-1.1-0.2-2.2c0.9-4 6.3-11.3 21.2-10.6zm103.8 157.5q6.7 2.7 13.5 5.1 6.8 2.5 13.6 4.8 6.9 2.3 13.8 4.4 6.9 2.1 13.9 3.9c2.7 0 1.5-3.5 1.5-6.2q-6.8-3.4-13.6-6.5-6.8-3.2-13.8-6.2-6.9-3-13.9-5.7-7-2.8-14.1-5.3c-3.1 0-2.4 9.7-0.9 11.7zm210.3 225c-9 8.8-18.5 16.9-28.6 24.5-10 7.6-20.5 14.5-31.4 20.7-10.9 6.2-22.2 11.7-33.8 16.5-11.6 4.8-23.5 8.8-35.6 12.1-22.7 5.2-45.7 9.1-68.8 11.7-23.2 2.6-46.4 3.8-69.7 3.7-23.3-0.2-46.6-1.6-69.7-4.5-23.1-2.8-46-7-68.7-12.4-102.3-25.9-156.2-50-177.7-67.7-21.5-17.6-41-39.8-35.1-39.5 3.5 0 70.6 36 128.8 51.7q23.5 7.1 47.4 12.4 24 5.4 48.2 8.9 24.3 3.6 48.8 5.3 24.5 1.6 49 1.5c88.6 0 133.5-1.1 195.6-16.4 62.2-15.2 97.8-36 100-34.4q0.8 0.5 1.2 1.2 0.5 0.7 0.7 1.5 0.2 0.8 0 1.7-0.1 0.8-0.6 1.5zm-50-79c-2.8 0.9-7.1 5.1-6.3 7.9q4.7 4 9.6 7.9 4.9 3.9 10 7.5 5 3.7 10.2 7.1 5.2 3.5 10.5 6.7c3.1 1.3 6.2-3.1 7-5.5 0.7-2.3-36.3-33-41-31.6z"/></svg>