<?xml version="1.0" encoding="iso-8859-1"?>
<!-- Uploaded to: SVG Repo, www.svgrepo.com, Generator: SVG Repo Mixer Tools -->
<!DOCTYPE svg PUBLIC "-//W3C//DTD SVG 1.1//EN" "http://www.w3.org/Graphics/SVG/1.1/DTD/svg11.dtd">
<svg fill="#000000" height="800px" width="800px" version="1.1" id="Capa_1" xmlns="http://www.w3.org/2000/svg" xmlns:xlink="http://www.w3.org/1999/xlink" 
	 viewBox="0 0 488.329 488.329" xml:space="preserve">
<g>
	<path d="M487.619,291.524c-9.332-18.32-25.233-31.902-44.771-38.242l-32.054-10.419V122.689c0-3.026-2.088-5.652-5.037-6.333
		l-160.13-37c-0.963-0.223-1.964-0.223-2.927,0l-160.129,37c-2.949,0.681-5.037,3.307-5.037,6.333v120.173L45.483,253.28
		c-19.541,6.342-35.441,19.923-44.773,38.243c-1.629,3.199-0.357,7.113,2.842,8.742c0.945,0.481,1.952,0.71,2.945,0.71
		c2.367,0,4.649-1.298,5.797-3.551c7.755-15.224,20.967-26.51,37.205-31.78l28.036-9.113v8.534l-15.106,8.075
		c-3.166,1.693-4.36,5.631-2.668,8.797c1.692,3.166,5.63,4.361,8.797,2.668l58.978-31.529c5.805-3.104,13.054-0.905,16.158,4.9
		c3.104,5.806,0.905,13.054-4.9,16.158l-18.957,10.134c-12.505,6.685-20.299,19.92-20.34,34.541
		c-0.032,11.514-6.438,21.889-16.717,27.077c-0.045,0.023-0.091,0.046-0.136,0.07l-11.968,6.398
		c-3.166,1.692-4.36,5.631-2.668,8.797c1.171,2.19,3.417,3.437,5.738,3.437c1.034,0,2.083-0.247,3.059-0.769l0.731-0.391v14.154
		c-6.131-0.033-12.205-0.949-18.125-2.746l-9.57-2.9c-3.435-1.041-7.064,0.9-8.105,4.336c-1.041,3.436,0.9,7.065,4.336,8.106
		l9.567,2.899c7.151,2.17,14.49,3.272,21.897,3.304v12.056c0,1.981,0.903,3.854,2.454,5.087c1.551,1.233,3.58,1.692,5.509,1.246
		l158.667-36.662l158.667,36.662c0.485,0.112,0.976,0.167,1.463,0.167c1.455,0,2.885-0.489,4.046-1.413
		c1.551-1.233,2.454-3.106,2.454-5.087v-12.056c7.407-0.032,14.746-1.134,21.895-3.304l9.57-2.9c3.436-1.041,5.377-4.67,4.336-8.106
		s-4.671-5.378-8.105-4.336l-9.573,2.901c-5.919,1.796-11.992,2.713-18.122,2.745V363.43l0.731,0.391
		c0.976,0.521,2.024,0.769,3.059,0.769c2.321,0,4.567-1.247,5.738-3.437c1.692-3.166,0.498-7.104-2.668-8.797l-11.968-6.398
		c-0.045-0.024-0.09-0.047-0.136-0.07c-10.279-5.188-16.685-15.563-16.717-27.077c-0.041-14.62-7.835-27.855-20.34-34.541
		l-18.957-10.135c-5.806-3.104-8.004-10.352-4.9-16.158c3.104-5.806,10.35-8.005,16.158-4.9l58.978,31.529
		c3.167,1.692,7.104,0.498,8.797-2.668c1.692-3.166,0.498-7.104-2.668-8.797l-15.106-8.075v-8.534l28.039,9.114
		c16.235,5.269,29.447,16.555,37.202,31.779c1.148,2.254,3.43,3.551,5.797,3.551c0.992,0,2-0.228,2.945-0.71
		C487.976,298.636,489.249,294.722,487.619,291.524z M383.498,130.22L250.664,99.526v-5.663l138.588,32.023L383.498,130.22z
		 M104.83,130.22l-5.754-4.335l138.587-32.023v5.663L104.83,130.22z M90.534,135.725l6.31,4.755v114.262l-6.31,3.373V135.725z
		 M112.495,318.847c0.018-6.604,2.362-12.761,6.404-17.438c0.028,0.245,0.066,0.49,0.123,0.736c0.694,3.005,3.369,5.038,6.327,5.038
		c0.485,0,0.977-0.055,1.469-0.168l96.81-22.37c3.498-0.808,5.678-4.299,4.87-7.796c-0.808-3.498-4.3-5.675-7.796-4.87
		l-88.592,20.471l12.813-6.85c6.647-3.553,11.023-9.71,12.56-16.543l66.15-15.291c3.498-0.809,5.678-4.299,4.869-7.797
		c-0.808-3.498-4.297-5.676-7.797-4.869l-63.841,14.757c-0.446-1.361-1.008-2.703-1.705-4.008
		c-2.557-4.782-6.462-8.386-10.995-10.608l79.466-18.362c3.498-0.808,5.678-4.299,4.87-7.796c-0.808-3.498-4.3-5.676-7.796-4.87
		l-96.81,22.37c-3.498,0.808-5.678,4.299-4.87,7.796c0.173,0.748,0.469,1.436,0.862,2.048l-10.039,5.367V142.404l127.82-29.536
		V360.47l-127.82,29.535v-56.279C111.556,329.048,112.48,324.029,112.495,318.847z M90.534,356.45
		c2.251-1.278,4.36-2.731,6.31-4.347v40.905l-6.31,1.458V356.45z M397.794,356.45v38.016l-6.31-1.458v-40.905
		C393.434,353.719,395.543,355.172,397.794,356.45z M333.171,251.849c-0.698,1.305-1.259,2.646-1.705,4.007L267.631,241.1
		c-3.498-0.809-6.988,1.372-7.797,4.869s1.372,6.988,4.869,7.797l66.144,15.289c1.536,6.834,5.913,12.991,12.56,16.545l12.813,6.85
		l-88.593-20.471c-3.497-0.808-6.988,1.372-7.796,4.87c-0.808,3.498,1.372,6.988,4.87,7.796l96.81,22.37
		c0.493,0.114,0.984,0.168,1.469,0.168c2.958,0,5.633-2.033,6.327-5.038c0.057-0.246,0.095-0.491,0.123-0.736
		c4.042,4.677,6.385,10.834,6.404,17.438c0.015,5.182,0.938,10.201,2.65,14.879v56.279l-127.82-29.535V112.868l127.82,29.536
		v105.389l-10.039-5.367c0.392-0.611,0.689-1.299,0.862-2.048c0.808-3.498-1.372-6.988-4.87-7.796l-96.81-22.37
		c-3.497-0.807-6.988,1.372-7.796,4.87c-0.808,3.498,1.372,6.988,4.87,7.796l79.466,18.363
		C339.633,243.462,335.728,247.067,333.171,251.849z M391.484,254.743V140.48l6.31-4.755v122.39L391.484,254.743z"/>
	<path d="M220.701,148.446l-96.81,22.37c-3.498,0.808-5.678,4.299-4.87,7.796c0.694,3.005,3.369,5.038,6.327,5.038
		c0.485,0,0.977-0.055,1.469-0.168l96.81-22.37c3.498-0.808,5.678-4.299,4.87-7.796
		C227.689,149.818,224.197,147.639,220.701,148.446z"/>
	<path d="M264.701,161.112l96.81,22.37c0.493,0.114,0.984,0.168,1.469,0.168c2.958,0,5.633-2.033,6.327-5.038
		c0.808-3.498-1.372-6.988-4.87-7.796l-96.81-22.37c-3.497-0.808-6.988,1.372-7.796,4.87S261.203,160.304,264.701,161.112z"/>
	<path d="M220.701,179.329l-96.81,22.37c-3.498,0.808-5.678,4.299-4.87,7.796c0.694,3.005,3.369,5.038,6.327,5.038
		c0.485,0,0.977-0.055,1.469-0.168l96.81-22.37c3.498-0.808,5.678-4.299,4.87-7.796
		C227.689,180.701,224.197,178.522,220.701,179.329z"/>
	<path d="M264.701,191.995l96.81,22.37c0.493,0.114,0.984,0.168,1.469,0.168c2.958,0,5.633-2.033,6.327-5.038
		c0.808-3.498-1.372-6.988-4.87-7.796l-96.81-22.37c-3.497-0.808-6.988,1.372-7.796,4.87
		C259.023,187.696,261.203,191.187,264.701,191.995z"/>
	<path d="M125.349,338.066c0.485,0,0.977-0.055,1.469-0.168l96.81-22.37c3.498-0.808,5.678-4.299,4.87-7.796
		c-0.808-3.498-4.3-5.675-7.796-4.87l-96.81,22.37c-3.498,0.808-5.678,4.299-4.87,7.796
		C119.716,336.033,122.391,338.066,125.349,338.066z"/>
	<path d="M264.701,315.528l96.81,22.37c0.493,0.114,0.984,0.168,1.469,0.168c2.958,0,5.633-2.033,6.327-5.038
		c0.808-3.498-1.372-6.988-4.87-7.796l-96.81-22.37c-3.497-0.808-6.988,1.372-7.796,4.87
		C259.023,311.229,261.203,314.719,264.701,315.528z"/>
</g>
</svg>